<svg xmlns="http://www.w3.org/2000/svg" xmlns:xlink="http://www.w3.org/1999/xlink" width="500" zoomAndPan="magnify" viewBox="0 0 375 89.999999" height="120" preserveAspectRatio="xMidYMid meet" version="1.0"><defs><g/><clipPath id="948890097a"><path d="M 315 1.71875 L 319 1.71875 L 319 8 L 315 8 Z M 315 1.71875 " clip-rule="nonzero"/></clipPath><clipPath id="59d0ae06d2"><path d="M 286.652344 38 L 292 38 L 292 41 L 286.652344 41 Z M 286.652344 38 " clip-rule="nonzero"/></clipPath><clipPath id="a571f62434"><path d="M 288.671875 2.671875 L 365.972656 2.671875 L 365.972656 85.765625 L 288.671875 85.765625 Z M 288.671875 2.671875 " clip-rule="nonzero"/></clipPath></defs><path fill="#8a1538" d="M 351.296875 53.765625 C 349.988281 53.929688 348.613281 53.234375 347.878906 52.234375 C 347.285156 51.425781 347.113281 50.386719 347.757812 49.578125 C 348.714844 49.175781 349.515625 49.644531 349.957031 50.5 C 350.53125 51.617188 350.191406 52.804688 351.296875 53.765625 " fill-opacity="1" fill-rule="evenodd"/><path fill="#8a1538" d="M 358.328125 53.492188 C 357.1875 54.074219 355.703125 53.894531 354.699219 53.222656 C 353.886719 52.683594 353.382812 51.789062 353.707031 50.835938 C 354.449219 50.152344 355.335938 50.316406 356.019531 50.949219 C 356.917969 51.78125 357.003906 52.980469 358.328125 53.492188 " fill-opacity="1" fill-rule="evenodd"/><path fill="#8a1538" d="M 356.304688 44.910156 C 355.273438 44.160156 353.789062 44.101562 352.699219 44.601562 C 351.816406 45.003906 351.183594 45.804688 351.351562 46.789062 C 351.96875 47.578125 352.867188 47.554688 353.636719 47.042969 C 354.648438 46.367188 354.921875 45.203125 356.304688 44.910156 " fill-opacity="1" fill-rule="evenodd"/><path fill="#8a1538" d="M 362.320312 48.34375 C 361.648438 47.328125 360.339844 46.785156 359.199219 46.871094 C 358.28125 46.9375 357.445312 47.441406 357.269531 48.378906 C 357.5625 49.289062 358.371094 49.566406 359.230469 49.363281 C 360.359375 49.09375 360.984375 48.144531 362.320312 48.34375 " fill-opacity="1" fill-rule="evenodd"/><path fill="#8a1538" d="M 348.664062 39.292969 C 347.554688 39.582031 346.671875 40.578125 346.402344 41.621094 C 346.179688 42.457031 346.375 43.351562 347.152344 43.796875 C 348.050781 43.8125 348.542969 43.179688 348.625 42.351562 C 348.730469 41.269531 348.078125 40.417969 348.664062 39.292969 " fill-opacity="1" fill-rule="evenodd"/><path fill="#8a1538" d="M 355.625 37.339844 C 354.347656 37.027344 352.90625 37.558594 352.0625 38.46875 C 351.382812 39.199219 351.09375 40.214844 351.640625 41.089844 C 352.546875 41.597656 353.394531 41.222656 353.925781 40.425781 C 354.625 39.382812 354.421875 38.164062 355.625 37.339844 " fill-opacity="1" fill-rule="evenodd"/><path fill="#8a1538" d="M 362.621094 46.074219 C 361.324219 46.625 359.710938 46.308594 358.664062 45.496094 C 357.820312 44.839844 357.339844 43.820312 357.769531 42.800781 C 358.636719 42.109375 359.59375 42.359375 360.292969 43.109375 C 361.210938 44.089844 361.207031 45.410156 362.621094 46.074219 " fill-opacity="1" fill-rule="evenodd"/><path fill="#8a1538" d="M 363.714844 37.082031 C 362.4375 36.242188 360.652344 36.261719 359.375 36.925781 C 358.34375 37.460938 357.632812 38.453125 357.890625 39.625 C 358.679688 40.535156 360.3125 40.203125 361.089844 39.402344 C 361.917969 38.550781 362.304688 37.453125 363.714844 37.082031 " fill-opacity="1" fill-rule="evenodd"/><path fill="#8a1538" d="M 355.917969 28.980469 C 354.984375 28.320312 353.652344 28.289062 352.683594 28.75 C 351.898438 29.121094 351.339844 29.847656 351.5 30.726562 C 352.066406 31.425781 352.871094 31.394531 353.554688 30.925781 C 354.453125 30.308594 354.679688 29.257812 355.917969 28.980469 " fill-opacity="1" fill-rule="evenodd"/><path fill="#8a1538" d="M 352.660156 36.734375 C 351.582031 37.488281 350.046875 37.515625 348.929688 36.976562 C 348.03125 36.542969 347.390625 35.703125 347.582031 34.691406 C 348.242188 33.890625 349.164062 33.929688 349.953125 34.476562 C 350.984375 35.195312 351.238281 36.402344 352.660156 36.734375 " fill-opacity="1" fill-rule="evenodd"/><path fill="#8a1538" d="M 357.476562 36.546875 C 356.460938 36.996094 355.183594 36.761719 354.351562 36.132812 C 353.675781 35.625 353.285156 34.824219 353.613281 34.015625 C 354.289062 33.460938 355.046875 33.648438 355.609375 34.230469 C 356.34375 34.996094 356.355469 36.039062 357.476562 36.546875 " fill-opacity="1" fill-rule="evenodd"/><path fill="#8a1538" d="M 359.683594 28.964844 C 358.585938 28.652344 357.316406 29.0625 356.554688 29.820312 C 355.941406 30.433594 355.65625 31.300781 356.101562 32.082031 C 356.867188 32.550781 357.613281 32.253906 358.101562 31.582031 C 358.746094 30.703125 358.613281 29.636719 359.683594 28.964844 " fill-opacity="1" fill-rule="evenodd"/><path fill="#8a1538" d="M 363.058594 27.976562 C 361.917969 28.046875 360.859375 28.855469 360.394531 29.824219 C 360.019531 30.605469 360.039062 31.519531 360.71875 32.105469 C 361.597656 32.292969 362.203125 31.765625 362.4375 30.96875 C 362.75 29.925781 362.273438 28.96875 363.058594 27.976562 " fill-opacity="1" fill-rule="evenodd"/><path fill="#8a1538" d="M 362.976562 26.351562 C 362.753906 27.203125 361.984375 27.878906 361.1875 28.089844 C 360.542969 28.257812 359.855469 28.105469 359.511719 27.507812 C 359.503906 26.816406 359.988281 26.4375 360.625 26.375 C 361.457031 26.296875 362.109375 26.800781 362.976562 26.351562 " fill-opacity="1" fill-rule="evenodd"/><path fill="#8a1538" d="M 337.488281 38.15625 C 336.425781 38.054688 335.332031 38.652344 334.765625 39.480469 C 334.308594 40.148438 334.191406 40.996094 334.738281 41.632812 C 335.519531 41.933594 336.15625 41.53125 336.488281 40.832031 C 336.925781 39.914062 336.621094 38.960938 337.488281 38.15625 " fill-opacity="1" fill-rule="evenodd"/><path fill="#8a1538" d="M 336.941406 23.589844 C 336.011719 24.515625 335.71875 26.011719 336.050781 27.199219 C 336.320312 28.15625 337.027344 28.925781 338.058594 28.914062 C 338.953125 28.410156 339.074219 27.5 338.675781 26.632812 C 338.152344 25.5 337.015625 25.039062 336.941406 23.589844 " fill-opacity="1" fill-rule="evenodd"/><path fill="#8a1538" d="M 336.660156 19.742188 C 336.992188 21.191406 336.375 22.8125 335.335938 23.75 C 334.5 24.507812 333.355469 24.824219 332.375 24.191406 C 331.8125 23.164062 332.25 22.214844 333.152344 21.625 C 334.339844 20.847656 335.714844 21.09375 336.660156 19.742188 " fill-opacity="1" fill-rule="evenodd"/><path fill="#8a1538" d="M 336.257812 14.179688 C 336.238281 15.574219 335.3125 16.90625 334.164062 17.527344 C 333.234375 18.03125 332.121094 18.058594 331.371094 17.265625 C 331.09375 16.210938 331.699219 15.441406 332.652344 15.109375 C 333.902344 14.667969 335.097656 15.195312 336.257812 14.179688 " fill-opacity="1" fill-rule="evenodd"/><path fill="#8a1538" d="M 341.589844 10.132812 C 341.125 11.695312 339.65625 12.90625 338.15625 13.242188 C 336.949219 13.515625 335.683594 13.195312 335.089844 12.0625 C 335.109375 10.777344 336.039062 10.105469 337.222656 10.03125 C 338.773438 9.933594 339.953125 10.90625 341.589844 10.132812 " fill-opacity="1" fill-rule="evenodd"/><path fill="#8a1538" d="M 334.351562 27.515625 C 334.445312 28.75 333.730469 30.007812 332.757812 30.652344 C 331.972656 31.171875 330.988281 31.285156 330.257812 30.644531 C 329.925781 29.726562 330.402344 28.996094 331.222656 28.625 C 332.300781 28.132812 333.402344 28.507812 334.351562 27.515625 " fill-opacity="1" fill-rule="evenodd"/><path fill="#8a1538" d="M 338.617188 14.675781 C 337.554688 15.648438 337.164062 17.277344 337.476562 18.59375 C 337.726562 19.652344 338.46875 20.53125 339.597656 20.566406 C 340.601562 20.054688 340.777344 19.058594 340.378906 18.09375 C 339.859375 16.824219 338.632812 16.269531 338.617188 14.675781 " fill-opacity="1" fill-rule="evenodd"/><path fill="#8a1538" d="M 346.464844 9.015625 C 344.753906 9.316406 343.300781 10.722656 342.761719 12.265625 C 342.328125 13.507812 342.511719 14.886719 343.640625 15.652344 C 345 15.785156 345.820312 14.882812 346.042969 13.640625 C 346.335938 12.011719 345.449219 10.648438 346.464844 9.015625 " fill-opacity="1" fill-rule="evenodd"/><path fill="#8a1538" d="M 348.03125 20.644531 C 348.023438 21.949219 347.164062 23.207031 346.085938 23.796875 C 345.21875 24.273438 344.175781 24.308594 343.46875 23.570312 C 343.195312 22.582031 343.761719 21.859375 344.652344 21.539062 C 345.824219 21.117188 346.949219 21.601562 348.03125 20.644531 " fill-opacity="1" fill-rule="evenodd"/><path fill="#8a1538" d="M 343.136719 5.105469 C 343.152344 6.375 342.339844 7.617188 341.304688 8.214844 C 340.46875 8.695312 339.453125 8.75 338.746094 8.042969 C 338.464844 7.085938 339 6.371094 339.863281 6.039062 C 340.996094 5.605469 342.097656 6.058594 343.136719 5.105469 " fill-opacity="1" fill-rule="evenodd"/><path fill="#8a1538" d="M 335.871094 2.71875 C 335 3.332031 334.558594 4.488281 334.664062 5.480469 C 334.746094 6.285156 335.207031 7 336.027344 7.128906 C 336.816406 6.851562 337.039062 6.136719 336.839844 5.390625 C 336.578125 4.414062 335.730469 3.890625 335.871094 2.71875 " fill-opacity="1" fill-rule="evenodd"/><path fill="#8a1538" d="M 351.835938 10.300781 C 350.664062 10.101562 349.40625 10.675781 348.710938 11.546875 C 348.148438 12.246094 347.949219 13.175781 348.503906 13.925781 C 349.347656 14.320312 350.082031 13.929688 350.507812 13.179688 C 351.066406 12.199219 350.808594 11.117188 351.835938 10.300781 " fill-opacity="1" fill-rule="evenodd"/><path fill="#8a1538" d="M 349.882812 17.164062 C 349.492188 18.183594 348.445312 18.914062 347.429688 19.058594 C 346.609375 19.175781 345.78125 18.894531 345.441406 18.105469 C 345.523438 17.25 346.179688 16.851562 346.972656 16.863281 C 348.015625 16.878906 348.753906 17.59375 349.882812 17.164062 " fill-opacity="1" fill-rule="evenodd"/><path fill="#8a1538" d="M 343.46875 29.082031 C 342.671875 29.800781 342.367188 31.015625 342.59375 32 C 342.773438 32.792969 343.320312 33.453125 344.164062 33.488281 C 344.917969 33.113281 345.054688 32.371094 344.765625 31.644531 C 344.382812 30.695312 343.472656 30.273438 343.46875 29.082031 " fill-opacity="1" fill-rule="evenodd"/><path fill="#8a1538" d="M 348.636719 26.90625 C 348.265625 27.707031 347.386719 28.242188 346.558594 28.308594 C 345.890625 28.359375 345.238281 28.089844 345.003906 27.4375 C 345.117188 26.75 345.664062 26.464844 346.304688 26.515625 C 347.144531 26.582031 347.699219 27.195312 348.636719 26.90625 " fill-opacity="1" fill-rule="evenodd"/><path fill="#8a1538" d="M 356.234375 20.449219 C 355.984375 21.753906 354.890625 22.851562 353.703125 23.246094 C 352.746094 23.5625 351.695312 23.402344 351.121094 22.53125 C 351.035156 21.488281 351.734375 20.871094 352.6875 20.714844 C 353.941406 20.511719 354.972656 21.207031 356.234375 20.449219 " fill-opacity="1" fill-rule="evenodd"/><path fill="#8a1538" d="M 358.679688 21.609375 C 357.445312 21.582031 356.234375 22.363281 355.648438 23.367188 C 355.171875 24.175781 355.113281 25.164062 355.796875 25.851562 C 356.726562 26.132812 357.425781 25.617188 357.75 24.78125 C 358.179688 23.683594 357.746094 22.609375 358.679688 21.609375 " fill-opacity="1" fill-rule="evenodd"/><path fill="#8a1538" d="M 361.507812 22.324219 C 360.78125 22.308594 360.066406 22.769531 359.722656 23.359375 C 359.441406 23.839844 359.40625 24.417969 359.808594 24.824219 C 360.355469 24.992188 360.769531 24.6875 360.960938 24.195312 C 361.214844 23.546875 360.957031 22.914062 361.507812 22.324219 " fill-opacity="1" fill-rule="evenodd"/><path fill="#8a1538" d="M 342.242188 35.054688 C 341.824219 36.273438 340.628906 37.179688 339.4375 37.394531 C 338.480469 37.570312 337.492188 37.277344 337.058594 36.367188 C 337.117188 35.355469 337.871094 34.855469 338.804688 34.835938 C 340.03125 34.808594 340.929688 35.613281 342.242188 35.054688 " fill-opacity="1" fill-rule="evenodd"/><path fill="#8a1538" d="M 354.238281 15.921875 C 353.078125 15.738281 351.832031 16.316406 351.148438 17.1875 C 350.59375 17.890625 350.410156 18.8125 350.960938 19.554688 C 351.800781 19.9375 352.53125 19.542969 352.945312 18.796875 C 353.492188 17.816406 353.226562 16.746094 354.238281 15.921875 " fill-opacity="1" fill-rule="evenodd"/><path fill="#8a1538" d="M 318.433594 19.816406 C 319.789062 20.738281 320.5 22.515625 320.367188 24.054688 C 320.257812 25.292969 319.566406 26.410156 318.296875 26.632812 C 317.074219 26.222656 316.714844 25.128906 317.003906 23.96875 C 317.382812 22.449219 318.675781 21.621094 318.433594 19.816406 " fill-opacity="1" fill-rule="evenodd"/><path fill="#8a1538" d="M 314.667969 12.28125 C 315.683594 13.027344 316.183594 14.40625 316.035156 15.582031 C 315.917969 16.53125 315.355469 17.367188 314.378906 17.503906 C 313.453125 17.15625 313.207031 16.304688 313.457031 15.425781 C 313.792969 14.273438 314.808594 13.671875 314.667969 12.28125 " fill-opacity="1" fill-rule="evenodd"/><path fill="#8a1538" d="M 304.636719 10.535156 C 305.695312 10.792969 306.554688 11.730469 306.828125 12.71875 C 307.050781 13.515625 306.878906 14.371094 306.140625 14.808594 C 305.285156 14.835938 304.804688 14.238281 304.714844 13.453125 C 304.597656 12.417969 305.210938 11.601562 304.636719 10.535156 " fill-opacity="1" fill-rule="evenodd"/><path fill="#8a1538" d="M 306.34375 20.5625 C 306.832031 21.851562 308.144531 22.78125 309.425781 22.976562 C 310.460938 23.128906 311.511719 22.78125 311.941406 21.789062 C 311.847656 20.710938 311.023438 20.199219 310.019531 20.210938 C 308.703125 20.222656 307.769531 21.117188 306.34375 20.5625 " fill-opacity="1" fill-rule="evenodd"/><path fill="#8a1538" d="M 301.734375 18.695312 C 302.617188 19.648438 304.089844 20 305.277344 19.710938 C 306.234375 19.480469 307.027344 18.808594 307.054688 17.789062 C 306.589844 16.878906 305.6875 16.726562 304.816406 17.089844 C 303.671875 17.5625 303.175781 18.675781 301.734375 18.695312 " fill-opacity="1" fill-rule="evenodd"/><path fill="#8a1538" d="M 299.4375 14.789062 C 299.644531 15.65625 300.40625 16.359375 301.210938 16.585938 C 301.863281 16.769531 302.558594 16.632812 302.917969 16.035156 C 302.945312 15.332031 302.460938 14.941406 301.816406 14.863281 C 300.976562 14.765625 300.304688 15.261719 299.4375 14.789062 " fill-opacity="1" fill-rule="evenodd"/><path fill="#8a1538" d="M 307.972656 8.875 C 309.660156 9.242188 311.050781 10.699219 311.519531 12.257812 C 311.902344 13.511719 311.660156 14.871094 310.507812 15.585938 C 309.152344 15.664062 308.371094 14.734375 308.199219 13.492188 C 307.976562 11.859375 308.917969 10.539062 307.972656 8.875 " fill-opacity="1" fill-rule="evenodd"/><path fill="#8a1538" d="M 303.019531 21.089844 C 304.25 21.300781 305.296875 22.3125 305.6875 23.417969 C 306 24.3125 305.867188 25.304688 305.058594 25.855469 C 304.082031 25.953125 303.488281 25.308594 303.328125 24.414062 C 303.117188 23.242188 303.753906 22.261719 303.019531 21.089844 " fill-opacity="1" fill-rule="evenodd"/><path fill="#8a1538" d="M 297.605469 18.164062 C 298.941406 18.3125 300.136719 19.328125 300.628906 20.496094 C 301.027344 21.4375 300.949219 22.511719 300.117188 23.15625 C 298.980469 23.1875 298.390625 22.671875 298.160156 21.722656 C 297.851562 20.476562 298.472656 19.375 297.605469 18.164062 " fill-opacity="1" fill-rule="evenodd"/><path fill="#8a1538" d="M 296.035156 26.492188 C 296.769531 27.332031 298.027344 27.664062 299.054688 27.445312 C 299.882812 27.269531 300.582031 26.707031 300.625 25.832031 C 300.109375 25.042969 299.476562 24.886719 298.71875 25.179688 C 297.726562 25.5625 297.269531 26.507812 296.035156 26.492188 " fill-opacity="1" fill-rule="evenodd"/><path fill="#8a1538" d="M 300.894531 29.328125 C 301.574219 29.984375 302.65625 30.175781 303.507812 29.921875 C 304.191406 29.714844 304.738281 29.195312 304.714844 28.453125 C 304.222656 27.828125 303.683594 27.738281 303.0625 28.039062 C 302.253906 28.429688 301.9375 29.257812 300.894531 29.328125 " fill-opacity="1" fill-rule="evenodd"/><path fill="#8a1538" d="M 305.902344 30.539062 C 306.914062 31.242188 308.351562 31.265625 309.390625 30.757812 C 310.230469 30.347656 310.828125 29.5625 310.644531 28.613281 C 309.878906 27.90625 309.160156 27.90625 308.425781 28.421875 C 307.464844 29.097656 307.230469 30.226562 305.902344 30.539062 " fill-opacity="1" fill-rule="evenodd"/><path fill="#8a1538" d="M 310.640625 32.339844 C 311.539062 33.214844 312.984375 33.472656 314.113281 33.132812 C 315.027344 32.859375 315.753906 32.167969 315.726562 31.183594 C 315.074219 30.347656 314.355469 30.230469 313.53125 30.625 C 312.453125 31.144531 312.03125 32.242188 310.640625 32.339844 " fill-opacity="1" fill-rule="evenodd"/><path fill="#8a1538" d="M 318.738281 33.605469 C 317.761719 34.933594 317.691406 36.851562 318.335938 38.261719 C 318.855469 39.398438 319.886719 40.21875 321.160156 40.003906 C 322.132812 39.003906 322.148438 38.046875 321.488281 37.050781 C 320.617188 35.742188 319.113281 35.390625 318.738281 33.605469 " fill-opacity="1" fill-rule="evenodd"/><path fill="#8a1538" d="M 321.492188 18.675781 C 321.226562 20.308594 322.035156 22.054688 323.25 23.019531 C 324.234375 23.796875 325.527344 24.0625 326.570312 23.289062 C 326.980469 21.953125 326.5625 21.089844 325.515625 20.503906 C 324.144531 19.730469 322.640625 20.101562 321.492188 18.675781 " fill-opacity="1" fill-rule="evenodd"/><path fill="#8a1538" d="M 317.9375 15.007812 C 318.234375 16.082031 319.21875 16.925781 320.238281 17.171875 C 321.058594 17.375 321.921875 17.171875 322.34375 16.40625 C 322.222656 15.476562 321.722656 15.0625 320.914062 14.996094 C 319.859375 14.910156 319.042969 15.558594 317.9375 15.007812 " fill-opacity="1" fill-rule="evenodd"/><path fill="#8a1538" d="M 313.285156 8.136719 C 313.257812 9.414062 314.066406 10.667969 315.101562 11.277344 C 315.9375 11.773438 316.960938 11.835938 317.675781 11.132812 C 317.847656 10.066406 317.433594 9.445312 316.570312 9.105469 C 315.433594 8.660156 314.320312 9.105469 313.285156 8.136719 " fill-opacity="1" fill-rule="evenodd"/><path fill="#8a1538" d="M 325.121094 9.003906 C 326.195312 9.53125 326.890625 10.742188 326.953125 11.867188 C 327 12.777344 326.609375 13.652344 325.714844 13.945312 C 324.757812 13.625 324.417969 13.015625 324.511719 12.148438 C 324.628906 11.011719 325.480469 10.28125 325.121094 9.003906 " fill-opacity="1" fill-rule="evenodd"/><path fill="#8a1538" d="M 324.679688 3.210938 C 325.386719 4.742188 325.070312 6.683594 324.140625 7.964844 C 323.386719 9 322.1875 9.613281 320.953125 9.140625 C 320.183594 7.941406 320.355469 6.972656 321.222656 6.109375 C 322.359375 4.972656 323.941406 4.929688 324.679688 3.210938 " fill-opacity="1" fill-rule="evenodd"/><g clip-path="url(#948890097a)"><path fill="#8a1538" d="M 317.855469 1.804688 C 316.675781 2.304688 315.863281 3.550781 315.734375 4.746094 C 315.628906 5.710938 315.988281 6.667969 316.925781 7.03125 C 317.96875 6.753906 318.363281 6.121094 318.316406 5.191406 C 318.257812 3.976562 317.394531 3.144531 317.855469 1.804688 " fill-opacity="1" fill-rule="evenodd"/></g><path fill="#8a1538" d="M 330.042969 2.703125 C 328.667969 3.667969 327.96875 5.5 328.132812 7.070312 C 328.265625 8.339844 328.992188 9.46875 330.292969 9.679688 C 331.539062 9.238281 331.890625 8.109375 331.578125 6.929688 C 331.164062 5.382812 329.824219 4.550781 330.042969 2.703125 " fill-opacity="1" fill-rule="evenodd"/><path fill="#8a1538" d="M 313.085938 33.921875 C 314.339844 34.15625 315.398438 35.195312 315.78125 36.332031 C 316.089844 37.25 315.945312 38.257812 315.113281 38.8125 C 314.035156 38.761719 313.515625 38.234375 313.359375 37.320312 C 313.160156 36.121094 313.820312 35.128906 313.085938 33.921875 " fill-opacity="1" fill-rule="evenodd"/><path fill="#8a1538" d="M 306.5 31.890625 C 307.574219 32.1875 308.417969 33.171875 308.667969 34.191406 C 308.871094 35.011719 308.667969 35.878906 307.902344 36.300781 C 306.96875 36.179688 306.554688 35.679688 306.488281 34.871094 C 306.398438 33.8125 307.050781 32.996094 306.5 31.890625 " fill-opacity="1" fill-rule="evenodd"/><path fill="#8a1538" d="M 302.070312 38.492188 C 301.976562 39.476562 302.523438 40.492188 303.289062 41.023438 C 303.910156 41.453125 304.691406 41.5625 305.285156 41.0625 C 305.480469 40.246094 305.195312 39.742188 304.550781 39.429688 C 303.699219 39.019531 302.8125 39.300781 302.070312 38.492188 " fill-opacity="1" fill-rule="evenodd"/><path fill="#8a1538" d="M 297.714844 35.695312 C 298.164062 36.675781 299.230469 37.328125 300.238281 37.410156 C 301.050781 37.476562 301.847656 37.152344 302.132812 36.359375 C 301.871094 35.488281 301.332031 35.171875 300.554688 35.230469 C 299.53125 35.308594 298.851562 36.050781 297.714844 35.695312 " fill-opacity="1" fill-rule="evenodd"/><path fill="#8a1538" d="M 294.875 32.328125 C 295.4375 33.320312 296.628906 33.914062 297.703125 33.910156 C 298.570312 33.90625 299.378906 33.488281 299.609375 32.621094 C 299.253906 31.722656 298.652344 31.4375 297.835938 31.574219 C 296.761719 31.75 296.113281 32.601562 294.875 32.328125 " fill-opacity="1" fill-rule="evenodd"/><path fill="#8a1538" d="M 288.488281 32.152344 C 289.230469 32.84375 290.398438 33.03125 291.308594 32.738281 C 292.039062 32.503906 292.617188 31.929688 292.578125 31.136719 C 292.035156 30.46875 291.453125 30.386719 290.792969 30.722656 C 289.929688 31.160156 289.609375 32.054688 288.488281 32.152344 " fill-opacity="1" fill-rule="evenodd"/><path fill="#8a1538" d="M 295.703125 35.472656 C 296.808594 35.703125 297.730469 36.644531 298.050781 37.660156 C 298.308594 38.476562 298.160156 39.367188 297.414062 39.84375 C 296.460938 39.78125 296.007812 39.300781 295.886719 38.492188 C 295.730469 37.425781 296.332031 36.558594 295.703125 35.472656 " fill-opacity="1" fill-rule="evenodd"/><path fill="#8a1538" d="M 292.1875 25.417969 C 293.269531 25.550781 294.230469 26.382812 294.617188 27.332031 C 294.929688 28.097656 294.859375 28.96875 294.175781 29.484375 C 293.257812 29.5 292.785156 29.074219 292.605469 28.304688 C 292.367188 27.292969 292.878906 26.40625 292.1875 25.417969 " fill-opacity="1" fill-rule="evenodd"/><path fill="#8a1538" d="M 292.121094 33.117188 C 293.148438 33.359375 293.984375 34.269531 294.253906 35.226562 C 294.472656 36 294.3125 36.828125 293.597656 37.253906 C 292.710938 37.167969 292.296875 36.707031 292.207031 35.945312 C 292.089844 34.941406 292.679688 34.148438 292.121094 33.117188 " fill-opacity="1" fill-rule="evenodd"/><g clip-path="url(#59d0ae06d2)"><path fill="#8a1538" d="M 286.652344 39.542969 C 287.207031 40.433594 288.324219 40.929688 289.308594 40.882812 C 290.101562 40.84375 290.828125 40.425781 291.003906 39.625 C 290.640625 38.816406 290.082031 38.578125 289.335938 38.734375 C 288.359375 38.9375 287.796875 39.742188 286.652344 39.542969 " fill-opacity="1" fill-rule="evenodd"/></g><path fill="#8a1538" d="M 288.832031 43.328125 C 289.875 44.371094 291.570312 44.695312 292.90625 44.316406 C 293.984375 44.007812 294.855469 43.207031 294.835938 42.046875 C 294.082031 41.050781 293.234375 40.902344 292.261719 41.355469 C 290.980469 41.949219 290.464844 43.234375 288.832031 43.328125 " fill-opacity="1" fill-rule="evenodd"/><path fill="#8a1538" d="M 301.851562 44.648438 C 302.582031 44.132812 303.628906 44.109375 304.386719 44.472656 C 305 44.765625 305.4375 45.335938 305.308594 46.027344 C 304.757812 46.546875 304.234375 46.546875 303.699219 46.175781 C 302.996094 45.691406 302.820312 44.871094 301.851562 44.648438 " fill-opacity="1" fill-rule="evenodd"/><path fill="#8a1538" d="M 311.21875 50.8125 C 312.496094 50.296875 313.394531 48.96875 313.554688 47.683594 C 313.6875 46.648438 313.316406 45.613281 312.316406 45.203125 C 311.242188 45.324219 310.75 46.160156 310.785156 47.160156 C 310.824219 48.46875 311.738281 49.378906 311.21875 50.8125 " fill-opacity="1" fill-rule="evenodd"/><path fill="#8a1538" d="M 304.496094 52.820312 C 305.621094 52.625 306.582031 51.699219 306.9375 50.683594 C 307.222656 49.867188 307.101562 48.960938 306.363281 48.453125 C 305.46875 48.363281 304.925781 48.957031 304.777344 49.773438 C 304.582031 50.847656 305.164062 51.746094 304.496094 52.820312 " fill-opacity="1" fill-rule="evenodd"/><path fill="#8a1538" d="M 297.214844 51.519531 C 298.328125 51.792969 299.578125 51.332031 300.3125 50.546875 C 300.90625 49.910156 301.160156 49.03125 300.683594 48.269531 C 299.902344 47.828125 299.164062 48.152344 298.699219 48.839844 C 298.089844 49.746094 298.261719 50.804688 297.214844 51.519531 " fill-opacity="1" fill-rule="evenodd"/><path fill="#8a1538" d="M 293.355469 45.972656 C 293.828125 44.984375 294.921875 44.335938 295.949219 44.269531 C 296.777344 44.214844 297.578125 44.558594 297.855469 45.371094 C 297.710938 46.214844 297.023438 46.566406 296.234375 46.492188 C 295.195312 46.394531 294.519531 45.628906 293.355469 45.972656 " fill-opacity="1" fill-rule="evenodd"/><path fill="#8a1538" d="M 344.113281 52.535156 C 342.667969 52.164062 341.515625 50.867188 341.160156 49.507812 C 340.871094 48.414062 341.121094 47.25 342.136719 46.667969 C 343.308594 46.640625 343.953125 47.46875 344.0625 48.546875 C 344.203125 49.960938 343.351562 51.070312 344.113281 52.535156 " fill-opacity="1" fill-rule="evenodd"/><g clip-path="url(#a571f62434)"><path fill="#8a1538" d="M 322.191406 52.449219 C 322.085938 54.574219 320.457031 57.394531 318.320312 57.902344 C 316.976562 58.222656 315.363281 58.148438 314.023438 58.625 C 312.535156 59.15625 311.402344 59.894531 310.113281 60.144531 C 308.335938 60.246094 306.738281 59.074219 304.691406 58.8125 C 302.953125 58.691406 301.574219 59.507812 299.925781 59.453125 C 298.070312 59.28125 296.242188 57.152344 293.480469 58.703125 C 291.875 59.605469 290.808594 60.960938 288.765625 60.753906 C 291.566406 61.4375 293.285156 58.910156 295.273438 59.136719 C 297.042969 59.40625 297.964844 60.6875 299.617188 61.09375 C 302.210938 61.675781 303.042969 60.296875 305.757812 61.707031 C 301.582031 62.859375 302.589844 64.574219 299.722656 65.101562 C 298.53125 65.277344 297.578125 64.996094 296.441406 64.71875 C 292.789062 63.777344 292.257812 66.257812 290.640625 65.058594 C 292.097656 66.464844 293.289062 64.242188 296.175781 65.476562 C 296.898438 65.824219 297.597656 66.09375 298.332031 66.25 C 296.769531 68.203125 296.558594 69.808594 293.691406 69.910156 C 296.964844 70.210938 297.378906 68.308594 298.988281 66.980469 C 300.21875 65.964844 300.5 66.648438 302.132812 65.839844 C 302.910156 65.433594 303.421875 64.863281 304.160156 64.445312 C 306.347656 63.207031 309.027344 64.128906 311.367188 63.40625 C 313.136719 62.859375 314.65625 62.164062 316.589844 62.214844 C 315 63.726562 314.210938 66.484375 313.882812 66.785156 C 313.53125 67.203125 313.167969 67.351562 312.660156 67.527344 C 311.765625 67.820312 311.09375 67.972656 310.222656 68.414062 C 309.335938 68.9375 308.484375 69.542969 307.441406 69.640625 C 305.792969 69.761719 304.816406 68.714844 303.289062 68.855469 C 302.410156 68.9375 301.773438 69.390625 301.308594 70.101562 C 300.855469 70.761719 300.386719 71.234375 299.988281 71.960938 C 299.5 72.933594 299.933594 74.375 298.351562 74.878906 C 300.171875 74.605469 300.003906 72.953125 300.535156 72.296875 C 301.003906 71.695312 301.5625 71.273438 302.097656 70.742188 C 302.507812 70.308594 303.335938 70.214844 303.882812 70.378906 C 304.601562 70.59375 306.085938 71.738281 308.023438 71.703125 C 306.351562 74.414062 305.007812 72.792969 304.160156 74.632812 C 303.339844 76.425781 304.042969 76.785156 303.027344 77.585938 C 304.203125 76.949219 303.886719 75.804688 304.699219 74.933594 C 304.816406 74.765625 304.929688 74.632812 305.113281 74.542969 C 305.800781 74.277344 306.445312 74.496094 307.417969 74.109375 C 309.441406 73.214844 309.910156 71.109375 311.78125 70.726562 C 313.363281 70.402344 314.664062 70.605469 316.242188 69.3125 C 317.75 68.078125 317.828125 66.878906 318.914062 65.917969 L 319.125 69.054688 C 319.042969 69.773438 319.234375 70.832031 319.066406 71.507812 C 318.957031 72.070312 318.242188 73.277344 317.980469 73.984375 C 317.371094 75.742188 316.765625 76.066406 314.824219 76.984375 C 314.125 77.3125 313.609375 77.875 312.476562 77.933594 C 311.679688 77.972656 310.96875 77.59375 310.191406 78.347656 C 309.355469 79.164062 309.464844 78.828125 309.328125 79.847656 L 308.964844 80.671875 C 309.789062 80.289062 309.382812 79.34375 310.003906 79.0625 L 311.050781 78.535156 C 311.628906 78.511719 311.933594 79.023438 313.859375 78.796875 L 317.371094 77.621094 C 317.105469 79.210938 316.667969 78.675781 316.09375 79.5625 C 315.875 79.953125 315.652344 80.0625 315.449219 80.585938 L 315.230469 82.839844 C 315.214844 83.328125 315.097656 83.605469 314.765625 83.972656 C 315.777344 83.207031 315.46875 82.53125 315.851562 81.898438 C 316.34375 81.078125 315.527344 81.480469 316.9375 80.226562 C 317.359375 79.882812 317.71875 79.910156 318.253906 79.402344 C 318.996094 78.601562 319.167969 77.710938 319.558594 76.722656 C 320.105469 75.804688 320.46875 74.621094 320.921875 73.988281 C 322.359375 72.058594 322.09375 71.953125 322.621094 69.5 C 323.007812 67.707031 322.265625 66.828125 324.234375 64.082031 C 325.027344 66.613281 327.984375 69.582031 326.191406 73.441406 L 324.757812 75.484375 C 324.109375 76.113281 323.363281 76.691406 322.945312 77.507812 C 322.332031 78.84375 323.117188 81.152344 322.753906 82.078125 C 322.285156 83.265625 320.972656 82.855469 320.914062 84.621094 C 320.90625 84.988281 320.828125 85.179688 320.585938 85.46875 C 321.316406 84.820312 320.996094 84.34375 321.359375 83.933594 C 322.097656 83.101562 323.234375 83.59375 323.746094 81.703125 L 323.988281 79.839844 C 324.039062 79.722656 324.070312 79.476562 324.105469 79.210938 C 324.125 80.128906 324.421875 80.714844 325.140625 81.503906 C 325.601562 82 325.8125 82.042969 326.34375 82.355469 C 327.023438 83.09375 326.765625 83.0625 327.21875 83.683594 C 328.101562 84.859375 327.523438 84.433594 327.121094 85.640625 C 327.027344 85.945312 326.980469 86.207031 327.128906 86.507812 C 327.390625 84.644531 328.90625 85.273438 327.785156 83.277344 C 327.472656 82.65625 327.855469 82.730469 327.0625 81.71875 C 326.613281 81.117188 325.265625 80.6875 325.632812 78.734375 C 325.691406 78.542969 325.90625 78.226562 326.007812 77.980469 C 326.101562 77.714844 326.234375 77.171875 326.414062 76.980469 C 327.382812 75.734375 328.367188 74.625 329.070312 73.203125 L 329.179688 74.679688 C 329.265625 75.113281 329.527344 75.726562 329.550781 76.0625 C 329.542969 76.105469 329.546875 76.65625 329.605469 76.667969 C 329.625 76.707031 328.734375 78.476562 329.605469 79.457031 C 329.8125 79.691406 330.738281 79.882812 330.628906 81.429688 C 331.082031 79.761719 330.078125 79.253906 330.03125 79.132812 C 329.621094 78.09375 330.492188 77.441406 330.652344 76.902344 C 330.675781 76.804688 330.71875 76.28125 330.734375 76.273438 C 330.898438 75.515625 330.695312 75.207031 330.714844 74.539062 C 330.804688 73.898438 330.960938 73.617188 330.917969 72.898438 C 330.882812 69.414062 330.316406 69.113281 329.117188 66 C 328.546875 64.515625 328.117188 63.023438 328.277344 61.71875 C 329.644531 62.773438 331.402344 64.890625 331.855469 66.863281 C 332.023438 67.613281 331.957031 68.605469 332.113281 69.5 C 332.644531 71.953125 332.382812 72.0625 333.816406 73.988281 C 334.273438 74.621094 334.628906 75.804688 335.179688 76.722656 C 335.570312 77.710938 335.742188 78.601562 336.488281 79.402344 C 336.960938 79.882812 337.78125 79.996094 338.535156 80.910156 C 338.675781 81.085938 338.726562 81.628906 338.890625 81.898438 C 339.269531 82.53125 338.960938 83.207031 339.972656 83.972656 C 339.21875 83.132812 339.679688 82.699219 339.410156 81.667969 C 339.332031 81.292969 339.425781 81.042969 339.289062 80.585938 C 338.988281 79.703125 337.671875 78.660156 337.589844 78.496094 C 337.496094 78.296875 337.425781 77.972656 337.367188 77.621094 L 340.878906 78.796875 C 343.3125 79.082031 343.308594 78.140625 344.21875 78.742188 C 345.113281 79.335938 344.921875 79.015625 345.191406 79.882812 L 345.476562 80.269531 C 345.308594 79.773438 345.578125 79.167969 344.925781 78.714844 C 344.644531 78.519531 344.417969 78.0625 343.804688 77.917969 C 343.011719 77.730469 342.488281 78.195312 341.125 77.667969 C 340.730469 77.5 340.339844 77.1875 339.914062 76.984375 C 337.96875 76.0625 337.371094 75.742188 336.757812 73.984375 C 336.496094 73.277344 335.78125 72.070312 335.671875 71.507812 C 335.339844 70.167969 336 67.542969 335.824219 65.917969 C 337.40625 67.320312 337.488281 69.917969 341.367188 70.503906 C 342.820312 70.722656 343.453125 70.542969 344.617188 71.722656 C 345.574219 72.722656 346 73.46875 347.320312 74.109375 C 348.292969 74.496094 348.941406 74.277344 349.625 74.542969 L 350.449219 75.570312 C 350.890625 76.203125 350.558594 76.964844 351.710938 77.585938 C 350.699219 76.785156 351.398438 76.433594 350.578125 74.632812 C 349.738281 72.796875 348.378906 74.410156 346.714844 71.703125 L 349.632812 70.96875 C 350.488281 70.582031 351.332031 69.398438 352.640625 70.742188 C 353.175781 71.273438 353.734375 71.695312 354.203125 72.296875 C 354.734375 72.953125 354.566406 74.605469 356.386719 74.878906 C 354.804688 74.375 355.238281 72.933594 354.75 71.960938 L 352.875 69.433594 C 351.734375 68.453125 350.59375 68.621094 349.3125 69.195312 C 347.09375 70.191406 346.359375 69.425781 344.515625 68.414062 C 343.644531 67.972656 342.976562 67.820312 342.078125 67.527344 C 341.566406 67.351562 341.207031 67.203125 340.859375 66.785156 C 340.441406 66.40625 339.886719 63.871094 338.148438 62.214844 C 338.367188 62.210938 338.589844 62.207031 338.816406 62.207031 C 340.167969 62.253906 341.242188 62.757812 342.554688 63.074219 C 345.074219 64.375 348.132812 63.0625 350.578125 64.445312 C 351.316406 64.863281 351.828125 65.433594 352.605469 65.839844 C 355.117188 67.085938 354.222656 65.246094 357.042969 68.335938 C 358.25 69.660156 359.230469 70.078125 361.046875 69.910156 C 358.199219 69.808594 357.972656 68.226562 356.40625 66.25 C 358.636719 65.78125 359.167969 64.59375 361.878906 65.324219 C 362.789062 65.566406 363.363281 65.769531 364.097656 65.058594 C 362.472656 66.257812 361.953125 63.777344 358.296875 64.71875 C 356.636719 65.144531 354.925781 65.503906 353.390625 64.472656 C 352.234375 63.691406 352.164062 62.585938 348.980469 61.707031 C 351.691406 60.296875 352.527344 61.675781 355.121094 61.09375 C 357.261719 60.613281 358.402344 58.40625 360.917969 59.394531 C 362.617188 60.0625 363.878906 61.261719 365.972656 60.753906 C 363.167969 61.035156 361.875 58.191406 359.449219 58.140625 C 357.253906 58.179688 356.589844 59.1875 354.8125 59.453125 C 353.164062 59.507812 351.785156 58.691406 350.050781 58.8125 C 348 59.074219 346.402344 60.246094 344.628906 60.144531 C 343.335938 59.894531 342.203125 59.15625 340.714844 58.625 C 339.375 58.148438 337.757812 58.222656 336.417969 57.902344 C 335.554688 57.695312 334.429688 56.636719 333.671875 55.679688 C 332.511719 53.726562 332.730469 50.820312 333.8125 48.96875 C 335.238281 46.53125 335.117188 46.546875 337.660156 45.085938 C 338.960938 44.339844 340.957031 44.195312 342.316406 44.871094 C 344.375 45.898438 346.269531 47.980469 349.082031 48.960938 C 351.691406 49.875 354.847656 47.351562 359.433594 51.40625 C 355.082031 46.804688 351.742188 48.941406 349.519531 47.898438 C 348.59375 47.441406 347.9375 47.046875 347.394531 46.65625 C 350.175781 46.230469 351.84375 43.695312 354.03125 42.496094 C 355.222656 41.867188 356.183594 41.769531 357.519531 41.761719 C 360.132812 41.855469 360.605469 42.625 362.867188 43.410156 C 360.601562 42.359375 360.3125 41.46875 357.550781 41.128906 C 351.929688 40.550781 350.734375 44.332031 347.515625 44.761719 C 345.585938 45.015625 344.925781 43.378906 342.746094 42.375 C 344.644531 40.921875 345.503906 38.980469 345.953125 36.65625 C 346.117188 35.824219 346.640625 34.480469 347.382812 33.996094 C 348.40625 33.355469 350.253906 32.925781 351.445312 32.984375 C 355.207031 33.164062 361.984375 35.945312 363.675781 31.148438 C 361.492188 35.660156 355.070312 31.679688 350.695312 31.488281 C 349.582031 31.472656 348.660156 31.527344 347.699219 31.800781 C 351.675781 24.890625 355.738281 28.0625 359.453125 26.386719 C 360.121094 26.078125 361.050781 25.585938 361.425781 24.910156 C 360.449219 26.175781 357.921875 26.621094 356.363281 26.542969 C 354.832031 26.46875 353.304688 26.167969 351.550781 26.75 C 347.6875 28.117188 345.125 32.53125 344.085938 36.25 C 342.992188 40.160156 341.222656 40.707031 337.625 41.863281 C 335.523438 42.539062 333.640625 43.351562 331.871094 44.8125 C 332.140625 43.175781 332.171875 40.917969 332.796875 39.246094 C 333.085938 38.476562 333.960938 36.847656 334.53125 36.269531 C 335.8125 35.007812 336.941406 35.566406 338.980469 33.53125 C 342.421875 30.097656 339.75 28.761719 345.183594 26.511719 C 347.847656 25.410156 349.65625 24.582031 350.4375 21.566406 C 348.742188 25.453125 345.34375 24.605469 342.152344 25.917969 C 342.378906 23.25 341.835938 19.402344 344.222656 17.507812 C 345.832031 16.296875 348.761719 15.511719 350.714844 14.738281 C 348.382812 15.300781 345.613281 15.800781 343.765625 16.878906 C 341.34375 18.394531 340.941406 21.710938 340.699219 24.304688 C 340.460938 26.871094 339.453125 30.085938 337.371094 31.796875 C 335.855469 33.039062 333.886719 32.664062 330.898438 35.628906 C 326.738281 26.867188 334.113281 27.007812 330.617188 19.113281 C 326.785156 10.453125 335.433594 11.941406 337.398438 7.664062 C 337.902344 6.480469 337.90625 5.46875 337.761719 4.207031 C 337.902344 11.632812 330.007812 8.222656 328.058594 14.019531 C 327.808594 14.824219 327.71875 15.527344 327.726562 16.273438 C 325.261719 14.609375 319.585938 12.378906 319.019531 9.710938 C 318.609375 7.792969 321.132812 7.003906 320.859375 2.882812 C 320.90625 6.765625 317.980469 7.390625 318.21875 9.828125 C 318.597656 13.734375 325.78125 16.367188 327.855469 19.363281 L 328.769531 22.152344 C 328.890625 24.765625 326.046875 25.535156 324.695312 29.113281 C 320.097656 27.039062 316.320312 30.648438 315.679688 23.039062 C 315.261719 18.078125 312.933594 17.585938 309.089844 16.453125 C 307.507812 15.988281 303.859375 15.511719 303.644531 13.375 C 302.90625 15.945312 308.902344 17.546875 311.320312 18.785156 C 314.496094 20.414062 313.007812 22.824219 313.691406 26.195312 C 310.171875 24.542969 306.894531 26.925781 304.800781 26.722656 C 303.175781 26.566406 301.90625 23.542969 297.992188 24.085938 C 301.863281 23.960938 302.570312 27.105469 304.628906 27.644531 C 306.234375 28.066406 308.957031 27.035156 311.226562 27.355469 C 313.625 27.695312 315.027344 31.003906 319.542969 31.511719 C 321.351562 31.722656 322.433594 31.878906 323.527344 33.449219 C 324.503906 34.851562 324.519531 35.878906 324.097656 37.515625 C 323.792969 38.703125 322.566406 40.890625 321.308594 41.300781 C 319.207031 40.105469 317.191406 40.398438 315.140625 39.699219 C 313.960938 39.296875 313.007812 38.554688 311.78125 38.175781 C 308.214844 37.027344 305.394531 37.609375 303.691406 34.503906 C 302.582031 32.480469 301.53125 30.589844 299.207031 29.785156 C 297.003906 29.023438 296.539062 29.765625 294.910156 30.152344 C 294.160156 30.316406 293.621094 30.199219 292.878906 30.089844 C 292.082031 29.941406 291.417969 29.371094 290.710938 28.90625 C 291.324219 29.566406 291.914062 30.195312 292.816406 30.449219 C 296.335938 31.347656 296.097656 29.421875 298.898438 30.605469 C 300.855469 31.433594 301.640625 33.324219 302.457031 35.113281 C 304.265625 39.101562 307.585938 38.785156 310.882812 40.148438 C 307.527344 40.621094 307.621094 41.191406 306.308594 41.496094 C 305.582031 41.636719 304.625 41.929688 303.914062 41.957031 C 303.113281 41.921875 302.480469 41.617188 301.695312 41.476562 C 300.492188 41.320312 299.308594 41.429688 298.160156 41.234375 C 297.449219 41.066406 296.683594 40.617188 296.039062 40.261719 C 295.148438 39.765625 294.886719 39.46875 294.25 38.710938 C 293.269531 37.53125 292.988281 38.113281 291.828125 37.550781 C 290.617188 36.945312 290.585938 37.5625 289.464844 37.804688 C 289.09375 37.882812 289.960938 37.890625 289.960938 37.890625 C 290.84375 37.820312 290.71875 37.597656 291.574219 38.097656 L 292.953125 38.515625 C 294.003906 38.800781 293.964844 40.164062 295.527344 41.195312 C 296.34375 41.707031 296.90625 42.183594 297.851562 42.488281 C 299.066406 42.8125 300.191406 42.789062 301.402344 43.058594 C 302.335938 43.328125 302.707031 43.636719 303.800781 43.773438 C 304.785156 43.84375 305.644531 43.632812 306.613281 43.523438 C 307.90625 43.355469 308.171875 42.832031 310.238281 42.671875 C 309.570312 43.109375 308.824219 44.367188 308.164062 45.054688 C 307.03125 46.238281 306.703125 46.792969 304.746094 46.785156 L 300.210938 45.96875 C 299.367188 45.949219 298.851562 46.382812 298.214844 46.8125 C 297.753906 47.121094 297.308594 47.1875 297.015625 47.773438 C 297.3125 47.28125 297.835938 47.210938 298.324219 47 C 298.910156 46.75 299.414062 46.359375 300.171875 46.484375 C 300.925781 46.605469 303.371094 47.796875 304.644531 47.992188 C 305.742188 48.160156 307.542969 47.9375 308.460938 47.238281 C 308.71875 47.035156 308.949219 46.816406 309.199219 46.613281 C 309.695312 46.230469 310.21875 45.941406 310.664062 45.496094 C 311.460938 44.644531 312.742188 43.859375 313.902344 43.613281 C 314.558594 43.449219 315.679688 43.6875 316.324219 43.789062 C 317.074219 43.898438 317.648438 44.292969 318.28125 44.511719 C 318.785156 44.710938 320.046875 45.039062 320.761719 46.144531 C 321.621094 47.59375 322.304688 50.222656 322.191406 52.449219 " fill-opacity="1" fill-rule="nonzero"/></g><g fill="#8a1538" fill-opacity="1"><g transform="translate(18.546446, 68.269514)"><g><path d="M 4.9375 0 L 4.9375 -9.875 L 84.046875 -9.875 L 84.046875 -19.765625 L 93.875 -19.765625 L 93.875 -9.875 C 93.875 -8.0625 93.4375 -6.40625 92.5625 -4.90625 C 91.6875 -3.414062 90.503906 -2.222656 89.015625 -1.328125 C 87.523438 -0.441406 85.867188 0 84.046875 0 Z M 56.4375 16.796875 L 49.515625 9.875 L 56.4375 3.015625 L 63.359375 9.875 Z M 56.4375 16.796875 "/></g></g></g><g fill="#8a1538" fill-opacity="1"><g transform="translate(117.343912, 68.269514)"><g><path d="M 14.875 0 C 13.050781 0 11.382812 -0.441406 9.875 -1.328125 C 8.363281 -2.222656 7.160156 -3.414062 6.265625 -4.90625 C 5.378906 -6.40625 4.9375 -8.0625 4.9375 -9.875 L 4.9375 -34.578125 L 14.875 -34.578125 L 14.875 -9.875 L 19.828125 -9.875 L 19.828125 0 Z M 14.875 0 "/></g></g></g><g fill="#8a1538" fill-opacity="1"><g transform="translate(137.161524, 68.269514)"><g><path d="M 0 0 L -4.875 -9.875 L 4.9375 -9.875 L 4.9375 -17.78125 L 14.875 -17.78125 L 14.875 -9.875 L 24.765625 -9.875 L 24.765625 -17.78125 L 34.578125 -17.78125 L 34.578125 -9.875 L 44.53125 -9.875 L 44.53125 -21.734375 L 54.40625 -21.734375 L 54.40625 -9.875 L 59.34375 -9.875 L 59.34375 0 C 57.519531 0 55.851562 -0.441406 54.34375 -1.328125 C 52.832031 -2.222656 51.640625 -3.414062 50.765625 -4.90625 C 49.898438 -6.40625 49.46875 -8.0625 49.46875 -9.875 C 49.46875 -8.0625 49.019531 -6.40625 48.125 -4.90625 C 47.238281 -3.414062 46.035156 -2.222656 44.515625 -1.328125 C 43.003906 -0.441406 41.34375 0 39.53125 0 C 37.738281 0 36.085938 -0.441406 34.578125 -1.328125 C 33.066406 -2.222656 31.863281 -3.414062 30.96875 -4.90625 C 30.082031 -6.40625 29.640625 -8.0625 29.640625 -9.875 C 29.640625 -8.0625 29.191406 -6.40625 28.296875 -4.90625 C 27.410156 -3.414062 26.226562 -2.222656 24.75 -1.328125 C 23.28125 -0.441406 21.640625 0 19.828125 0 C 18.003906 0 16.335938 -0.441406 14.828125 -1.328125 C 13.316406 -2.222656 12.113281 -3.414062 11.21875 -4.90625 C 10.320312 -6.40625 9.875 -8.0625 9.875 -9.875 C 9.875 -8.0625 9.425781 -6.40625 8.53125 -4.90625 C 7.644531 -3.414062 6.457031 -2.222656 4.96875 -1.328125 C 3.476562 -0.441406 1.820312 0 0 0 Z M 0 0 "/></g></g></g><g fill="#8a1538" fill-opacity="1"><g transform="translate(196.498122, 68.269514)"><g><path d="M 17.375 -13.828125 L 10.46875 -20.8125 L 17.375 -27.671875 L 24.296875 -20.8125 Z M 0 0 L -4.875 -9.875 L 34.578125 -9.875 L 34.578125 -17.78125 L 44.53125 -17.78125 L 44.53125 -9.875 L 49.46875 -9.875 L 49.46875 0 C 47.644531 0 45.976562 -0.441406 44.46875 -1.328125 C 42.957031 -2.222656 41.753906 -3.414062 40.859375 -4.90625 C 39.972656 -6.40625 39.53125 -8.0625 39.53125 -9.875 C 39.53125 -8.0625 39.082031 -6.40625 38.1875 -4.90625 C 37.289062 -3.414062 36.097656 -2.222656 34.609375 -1.328125 C 33.117188 -0.441406 31.460938 0 29.640625 0 Z M 0 0 "/></g></g></g><g fill="#8a1538" fill-opacity="1"><g transform="translate(245.954968, 68.269514)"><g><path d="M 22.03125 0.984375 C 19.4375 0.984375 16.972656 0.351562 14.640625 -0.90625 C 12.316406 -2.164062 10.535156 -4.050781 9.296875 -6.5625 C 8.640625 -4.664062 7.457031 -3.097656 5.75 -1.859375 C 4.050781 -0.617188 2.132812 0 0 0 L -4.875 -9.875 L 2.671875 -9.875 C 4.535156 -9.875 5.832031 -10.390625 6.5625 -11.421875 C 7.300781 -12.453125 7.804688 -13.859375 8.078125 -15.640625 C 8.503906 -18.234375 9.414062 -20.378906 10.8125 -22.078125 C 12.207031 -23.785156 13.890625 -25.078125 15.859375 -25.953125 C 17.835938 -26.828125 19.894531 -27.265625 22.03125 -27.265625 C 24.394531 -27.265625 26.648438 -26.738281 28.796875 -25.6875 C 30.953125 -24.644531 32.71875 -23.078125 34.09375 -20.984375 C 35.46875 -18.890625 36.15625 -16.273438 36.15625 -13.140625 C 36.15625 -9.992188 35.46875 -7.375 34.09375 -5.28125 C 32.71875 -3.195312 30.953125 -1.628906 28.796875 -0.578125 C 26.648438 0.460938 24.394531 0.984375 22.03125 0.984375 Z M 22.03125 -8.65625 C 23.15625 -8.65625 24.179688 -9.023438 25.109375 -9.765625 C 26.035156 -10.503906 26.5 -11.628906 26.5 -13.140625 C 26.5 -14.609375 26.039062 -15.707031 25.125 -16.4375 C 24.21875 -17.175781 23.207031 -17.546875 22.09375 -17.546875 C 20.96875 -17.628906 19.921875 -17.289062 18.953125 -16.53125 C 17.984375 -15.78125 17.5 -14.648438 17.5 -13.140625 C 17.5 -11.628906 17.984375 -10.503906 18.953125 -9.765625 C 19.921875 -9.023438 20.945312 -8.65625 22.03125 -8.65625 Z M 22.03125 -8.65625 "/></g></g></g><g fill="#8a1538" fill-opacity="1"><g transform="translate(140.661455, 30.815818)"><g><path d="M 8.734375 0 L 4.90625 -12.484375 L 4.8125 -12.484375 C 4.820312 -12.179688 4.84375 -11.734375 4.875 -11.140625 C 4.90625 -10.546875 4.9375 -9.90625 4.96875 -9.21875 C 5 -8.539062 5.015625 -7.929688 5.015625 -7.390625 L 5.015625 0 L 2 0 L 2 -15.90625 L 6.59375 -15.90625 L 10.359375 -3.75 L 10.421875 -3.75 L 14.421875 -15.90625 L 19 -15.90625 L 19 0 L 15.859375 0 L 15.859375 -7.53125 C 15.859375 -8.03125 15.867188 -8.609375 15.890625 -9.265625 C 15.921875 -9.921875 15.945312 -10.539062 15.96875 -11.125 C 15.988281 -11.71875 16.003906 -12.160156 16.015625 -12.453125 L 15.9375 -12.453125 L 11.828125 0 Z M 8.734375 0 "/></g></g></g><g fill="#8a1538" fill-opacity="1"><g transform="translate(163.161029, 30.815818)"><g><path d="M 3.40625 -16.9375 C 3.894531 -16.9375 4.316406 -16.820312 4.671875 -16.59375 C 5.035156 -16.363281 5.21875 -15.9375 5.21875 -15.3125 C 5.21875 -14.695312 5.035156 -14.269531 4.671875 -14.03125 C 4.316406 -13.800781 3.894531 -13.6875 3.40625 -13.6875 C 2.90625 -13.6875 2.476562 -13.800781 2.125 -14.03125 C 1.78125 -14.269531 1.609375 -14.695312 1.609375 -15.3125 C 1.609375 -15.9375 1.78125 -16.363281 2.125 -16.59375 C 2.476562 -16.820312 2.90625 -16.9375 3.40625 -16.9375 Z M 5.0625 -12.171875 L 5.0625 0 L 1.734375 0 L 1.734375 -12.171875 Z M 5.0625 -12.171875 "/></g></g></g><g fill="#8a1538" fill-opacity="1"><g transform="translate(171.447977, 30.815818)"><g><path d="M 8.640625 -12.390625 C 9.953125 -12.390625 11 -12.035156 11.78125 -11.328125 C 12.570312 -10.617188 12.96875 -9.488281 12.96875 -7.9375 L 12.96875 0 L 9.640625 0 L 9.640625 -7.109375 C 9.640625 -7.984375 9.484375 -8.640625 9.171875 -9.078125 C 8.867188 -9.515625 8.375 -9.734375 7.6875 -9.734375 C 6.675781 -9.734375 5.984375 -9.390625 5.609375 -8.703125 C 5.242188 -8.015625 5.0625 -7.019531 5.0625 -5.71875 L 5.0625 0 L 1.734375 0 L 1.734375 -12.171875 L 4.28125 -12.171875 L 4.71875 -10.609375 L 4.90625 -10.609375 C 5.289062 -11.234375 5.820312 -11.6875 6.5 -11.96875 C 7.175781 -12.25 7.890625 -12.390625 8.640625 -12.390625 Z M 8.640625 -12.390625 "/></g></g></g><g fill="#8a1538" fill-opacity="1"><g transform="translate(187.576359, 30.815818)"><g><path d="M 10.234375 -3.609375 C 10.234375 -2.378906 9.796875 -1.429688 8.921875 -0.765625 C 8.054688 -0.109375 6.757812 0.21875 5.03125 0.21875 C 4.1875 0.21875 3.457031 0.160156 2.84375 0.046875 C 2.238281 -0.0546875 1.632812 -0.234375 1.03125 -0.484375 L 1.03125 -3.234375 C 1.675781 -2.929688 2.378906 -2.679688 3.140625 -2.484375 C 3.898438 -2.296875 4.566406 -2.203125 5.140625 -2.203125 C 5.785156 -2.203125 6.25 -2.296875 6.53125 -2.484375 C 6.8125 -2.679688 6.953125 -2.9375 6.953125 -3.25 C 6.953125 -3.457031 6.894531 -3.644531 6.78125 -3.8125 C 6.675781 -3.976562 6.4375 -4.160156 6.0625 -4.359375 C 5.6875 -4.566406 5.109375 -4.835938 4.328125 -5.171875 C 3.546875 -5.492188 2.914062 -5.816406 2.4375 -6.140625 C 1.957031 -6.460938 1.597656 -6.847656 1.359375 -7.296875 C 1.117188 -7.753906 1 -8.320312 1 -9 C 1 -10.125 1.4375 -10.96875 2.3125 -11.53125 C 3.1875 -12.101562 4.351562 -12.390625 5.8125 -12.390625 C 6.570312 -12.390625 7.289062 -12.3125 7.96875 -12.15625 C 8.65625 -12.007812 9.363281 -11.769531 10.09375 -11.4375 L 9.09375 -9.046875 C 8.5 -9.296875 7.929688 -9.503906 7.390625 -9.671875 C 6.859375 -9.847656 6.316406 -9.9375 5.765625 -9.9375 C 4.785156 -9.9375 4.296875 -9.671875 4.296875 -9.140625 C 4.296875 -8.941406 4.359375 -8.765625 4.484375 -8.609375 C 4.609375 -8.453125 4.851562 -8.285156 5.21875 -8.109375 C 5.582031 -7.929688 6.125 -7.691406 6.84375 -7.390625 C 7.539062 -7.109375 8.140625 -6.816406 8.640625 -6.515625 C 9.148438 -6.210938 9.539062 -5.828125 9.8125 -5.359375 C 10.09375 -4.898438 10.234375 -4.316406 10.234375 -3.609375 Z M 10.234375 -3.609375 "/></g></g></g><g fill="#8a1538" fill-opacity="1"><g transform="translate(200.140455, 30.815818)"><g><path d="M 6.734375 -12.40625 C 8.367188 -12.40625 9.617188 -12.050781 10.484375 -11.34375 C 11.347656 -10.644531 11.78125 -9.566406 11.78125 -8.109375 L 11.78125 0 L 9.46875 0 L 8.828125 -1.65625 L 8.734375 -1.65625 C 8.210938 -1 7.660156 -0.519531 7.078125 -0.21875 C 6.503906 0.0703125 5.710938 0.21875 4.703125 0.21875 C 3.617188 0.21875 2.71875 -0.09375 2 -0.71875 C 1.289062 -1.34375 0.9375 -2.3125 0.9375 -3.625 C 0.9375 -4.914062 1.390625 -5.863281 2.296875 -6.46875 C 3.203125 -7.082031 4.5625 -7.429688 6.375 -7.515625 L 8.484375 -7.578125 L 8.484375 -8.109375 C 8.484375 -8.742188 8.316406 -9.207031 7.984375 -9.5 C 7.648438 -9.800781 7.1875 -9.953125 6.59375 -9.953125 C 6 -9.953125 5.421875 -9.867188 4.859375 -9.703125 C 4.296875 -9.535156 3.726562 -9.320312 3.15625 -9.0625 L 2.078125 -11.3125 C 2.710938 -11.644531 3.429688 -11.910156 4.234375 -12.109375 C 5.035156 -12.304688 5.867188 -12.40625 6.734375 -12.40625 Z M 8.484375 -5.640625 L 7.203125 -5.59375 C 6.128906 -5.5625 5.382812 -5.367188 4.96875 -5.015625 C 4.550781 -4.660156 4.34375 -4.191406 4.34375 -3.609375 C 4.34375 -3.109375 4.488281 -2.75 4.78125 -2.53125 C 5.082031 -2.3125 5.472656 -2.203125 5.953125 -2.203125 C 6.660156 -2.203125 7.257812 -2.410156 7.75 -2.828125 C 8.238281 -3.253906 8.484375 -3.859375 8.484375 -4.640625 Z M 8.484375 -5.640625 "/></g></g></g><g fill="#8a1538" fill-opacity="1"><g transform="translate(215.088174, 30.815818)"><g><path d="M 5.0625 -16.9375 L 5.0625 -12.984375 C 5.0625 -12.523438 5.046875 -12.070312 5.015625 -11.625 C 4.984375 -11.1875 4.953125 -10.835938 4.921875 -10.578125 L 5.0625 -10.578125 C 5.382812 -11.085938 5.820312 -11.515625 6.375 -11.859375 C 6.925781 -12.210938 7.640625 -12.390625 8.515625 -12.390625 C 9.878906 -12.390625 10.984375 -11.859375 11.828125 -10.796875 C 12.671875 -9.734375 13.09375 -8.171875 13.09375 -6.109375 C 13.09375 -4.023438 12.660156 -2.445312 11.796875 -1.375 C 10.941406 -0.3125 9.816406 0.21875 8.421875 0.21875 C 7.523438 0.21875 6.820312 0.0625 6.3125 -0.25 C 5.800781 -0.570312 5.382812 -0.9375 5.0625 -1.34375 L 4.828125 -1.34375 L 4.28125 0 L 1.734375 0 L 1.734375 -16.9375 Z M 7.4375 -9.734375 C 6.582031 -9.734375 5.972656 -9.460938 5.609375 -8.921875 C 5.253906 -8.378906 5.070312 -7.566406 5.0625 -6.484375 L 5.0625 -6.125 C 5.0625 -4.945312 5.234375 -4.039062 5.578125 -3.40625 C 5.929688 -2.78125 6.566406 -2.46875 7.484375 -2.46875 C 8.171875 -2.46875 8.710938 -2.78125 9.109375 -3.40625 C 9.515625 -4.039062 9.71875 -4.957031 9.71875 -6.15625 C 9.71875 -7.34375 9.507812 -8.234375 9.09375 -8.828125 C 8.6875 -9.429688 8.132812 -9.734375 7.4375 -9.734375 Z M 7.4375 -9.734375 "/></g></g></g></svg>